<svg width="47" height="48" viewBox="0 0 47 48" fill="none" xmlns="http://www.w3.org/2000/svg">
<rect x="1" width="45.1765" height="48" fill="#F8F5EE"/>
<path d="M17.4688 14.084V33H14.0029L5.78906 21.1045H5.63672V33H1.65039V14.084H5.1543L13.3174 25.9795H13.4824V14.084H17.4688ZM28.9326 13.1953L22.8389 35.8438H19.4492L25.543 13.1953H28.9326ZM37.9082 33.2666C35.6146 33.2666 33.7822 32.7419 32.4111 31.6924C31.0485 30.6429 30.3376 29.0983 30.2783 27.0586H34.1504C34.2181 28.0065 34.5905 28.7217 35.2676 29.2041C35.9531 29.6781 36.8164 29.915 37.8574 29.915C38.873 29.915 39.6855 29.6992 40.2949 29.2676C40.9128 28.8359 41.2217 28.2731 41.2217 27.5791C41.2217 26.9443 40.9424 26.4577 40.3838 26.1191C39.8252 25.7721 39.0296 25.4759 37.9971 25.2305L35.9277 24.7227C34.3366 24.3418 33.0798 23.7367 32.1572 22.9072C31.2432 22.0693 30.7861 20.9521 30.7861 19.5557C30.7861 18.4131 31.0951 17.4144 31.7129 16.5596C32.3307 15.6963 33.1771 15.0277 34.252 14.5537C35.3353 14.0713 36.5667 13.8301 37.9463 13.8301C39.3512 13.8301 40.5785 14.0713 41.6279 14.5537C42.6774 15.0361 43.4941 15.7048 44.0781 16.5596C44.6706 17.4144 44.9753 18.4004 44.9922 19.5176H41.1328C41.0651 18.7812 40.752 18.2057 40.1934 17.791C39.6348 17.3763 38.8773 17.1689 37.9209 17.1689C36.9476 17.1689 36.1986 17.3721 35.6738 17.7783C35.1491 18.1761 34.8867 18.6839 34.8867 19.3018C34.8867 19.9704 35.1787 20.4782 35.7627 20.8252C36.3467 21.1637 37.0492 21.4303 37.8701 21.625L39.5586 22.0439C40.6589 22.2894 41.6364 22.6491 42.4912 23.123C43.346 23.5885 44.0189 24.1895 44.5098 24.9258C45.0007 25.6536 45.2461 26.5423 45.2461 27.5918C45.2461 29.3268 44.5986 30.7064 43.3037 31.7305C42.0088 32.7546 40.2103 33.2666 37.9082 33.2666Z" fill="black"/>
</svg>
